# xmcd
#
# Track frame offsets:
#	150
#	15166
#	35096
#	58171
#	76516
#	101183
#	126944
#	143476
#	160816
#
# Disc length: 2374 seconds
#
# Revision: 0
# Processed by: cddbd v1.4PL0 Copyright (c) Steve Scherf et al.
# Submitted via: audiograbber 1.81.01
#
DISCID=69094409
DTITLE=Blues Evolution - Blues Evolution
DYEAR=2003
DGENRE=Blues
TTITLE0=Its Killing Me
TTITLE1=Already Rained Too Long
TTITLE2=Take It Easy Man
TTITLE3=A Whiter Shade of Pale
TTITLE4=Hot Summer High
TTITLE5=Another Blue Day
TTITLE6=I'm Gone
TTITLE7=Down For The Count
TTITLE8=Dyin' Day
EXTD=
EXTT0=
EXTT1=
EXTT2=
EXTT3=
EXTT4=
EXTT5=
EXTT6=
EXTT7=
EXTT8=
PLAYORDER=
